<svg xmlns="http://www.w3.org/2000/svg" width="151" height="41" viewBox="0 0 151 41" fill="none"><path d="M4.15446 40.2191V23.8842L23.2912 4.49054L20.0199 1.23657L0 21.7366V40.2191H4.15446Z" fill="white"></path><path d="M7.39307 40.2191H36.4089V35.4357L12.1691 35.5659V25.9667L30.3244 6.99603L45.8627 23.1357V40.154H50.5406V21.8341L30.259 0L7.39307 24.4048V40.2191Z" fill="white"></path><path d="M38.7641 40.219H43.3765V24.6L31.6328 12.7881L28.4924 15.9119L38.8295 26.5524L38.7641 40.219Z" fill="white"></path><path d="M57.2139 19.7516C57.2139 17.2461 57.1484 15.1961 57.0503 13.3413H60.2561L60.4197 16.6929H60.4851C61.9571 14.2849 64.2797 12.8857 67.4855 12.8857C72.2615 12.8857 75.8599 16.8881 75.8599 22.8754C75.8599 29.9365 71.5419 33.4183 66.8967 33.4183C64.2797 33.4183 61.9899 32.2794 60.8122 30.327H60.7468V41H57.2139V19.7516ZM60.7795 24.9905C60.7795 25.5111 60.8449 25.9992 60.9431 26.4548C61.5973 28.9278 63.7563 30.6199 66.3406 30.6199C70.1352 30.6199 72.3269 27.5286 72.3269 23.0381C72.3269 19.1008 70.2334 15.7492 66.4714 15.7492C64.018 15.7492 61.7282 17.5064 61.0412 20.1746C60.9104 20.6302 60.8122 21.1508 60.8122 21.6389V24.9905H60.7795Z" fill="white"></path><path d="M80.4397 19.4588C80.4397 17.1484 80.407 15.1635 80.2761 13.3413H83.4165L83.5473 17.181H83.7109C84.5941 14.5453 86.7532 12.8857 89.1739 12.8857C89.5664 12.8857 89.8608 12.9183 90.1879 13.0159V16.3675C89.8281 16.3024 89.4683 16.2373 88.9776 16.2373C86.4587 16.2373 84.6596 18.1572 84.1689 20.8254C84.1035 21.3135 84.0053 21.8667 84.0053 22.4849V32.9627H80.4724V19.4588H80.4397Z" fill="white"></path><path d="M95.3564 23.8192C95.4219 28.6351 98.5295 30.62 102.128 30.62C104.712 30.62 106.25 30.1645 107.591 29.6113L108.212 32.1819C106.937 32.7351 104.778 33.3859 101.637 33.3859C95.5527 33.3859 91.9216 29.4161 91.9216 23.4939C91.9216 17.5716 95.4218 12.9185 101.179 12.9185C107.624 12.9185 109.325 18.5478 109.325 22.1597C109.325 22.8756 109.259 23.4613 109.194 23.8192H95.3564V23.8192ZM105.89 21.2486C105.923 18.9708 104.941 15.4566 100.918 15.4566C97.2865 15.4566 95.6836 18.7756 95.4219 21.2486H105.89Z" fill="white"></path><path d="M113.283 29.3183C114.329 30.0016 116.227 30.75 118.026 30.75C120.643 30.75 121.853 29.4484 121.853 27.8215C121.853 26.1294 120.839 25.1857 118.189 24.2096C114.657 22.9405 112.956 21.0207 112.956 18.6453C112.956 15.4889 115.54 12.8857 119.76 12.8857C121.755 12.8857 123.522 13.4389 124.601 14.0897L123.718 16.6929C122.933 16.2048 121.526 15.554 119.694 15.554C117.568 15.554 116.39 16.758 116.39 18.2223C116.39 19.8492 117.568 20.5651 120.152 21.5413C123.587 22.8429 125.321 24.5349 125.321 27.4635C125.321 30.9127 122.638 33.3532 117.928 33.3532C115.769 33.3532 113.773 32.8326 112.367 32.0191L113.283 29.3183Z" fill="white"></path><path d="M133.924 7.84216C133.957 9.04613 133.073 10.0223 131.634 10.0223C130.358 10.0223 129.475 9.04613 129.475 7.84216C129.475 6.57311 130.424 5.59692 131.732 5.59692C133.073 5.59692 133.924 6.57311 133.924 7.84216ZM129.933 32.9628V13.3414H133.531V32.9628H129.933Z" fill="white"></path><path d="M138.995 29.3183C140.041 30.0016 141.939 30.75 143.738 30.75C146.355 30.75 147.565 29.4484 147.565 27.8215C147.565 26.1294 146.551 25.1857 143.901 24.2096C140.368 22.9405 138.667 21.0207 138.667 18.6453C138.667 15.4889 141.252 12.8857 145.472 12.8857C147.467 12.8857 149.234 13.4389 150.313 14.0897L149.43 16.6929C148.645 16.2048 147.238 15.554 145.406 15.554C143.28 15.554 142.102 16.758 142.102 18.2223C142.102 19.8492 143.28 20.5651 145.864 21.5413C149.299 22.8429 151.033 24.5349 151.033 27.4635C151.033 30.9127 148.35 33.3532 143.64 33.3532C141.481 33.3532 139.485 32.8326 138.079 32.0191L138.995 29.3183Z" fill="white"></path><path d="M131.7 10.0222C132.946 10.0222 133.957 9.01699 133.957 7.77698C133.957 6.53697 132.946 5.53174 131.7 5.53174C130.453 5.53174 129.442 6.53697 129.442 7.77698C129.442 9.01699 130.453 10.0222 131.7 10.0222Z" fill="white"></path></svg>